<?xml version="1.0" encoding="UTF-8" standalone="no"?>
<svg
   width="423"
   height="423"
   viewBox="0 0 423 423"
   fill="none"
   version="1.1"
   id="svg528"
   sodipodi:docname="donate_logo.svg"
   inkscape:version="1.2.2 (b0a8486, 2022-12-01)"
   xmlns:inkscape="http://www.inkscape.org/namespaces/inkscape"
   xmlns:sodipodi="http://sodipodi.sourceforge.net/DTD/sodipodi-0.dtd"
   xmlns="http://www.w3.org/2000/svg"
   xmlns:svg="http://www.w3.org/2000/svg">
  <sodipodi:namedview
     id="namedview530"
     pagecolor="#505050"
     bordercolor="#eeeeee"
     borderopacity="1"
     inkscape:showpageshadow="0"
     inkscape:pageopacity="0"
     inkscape:pagecheckerboard="0"
     inkscape:deskcolor="#505050"
     showgrid="false"
     inkscape:zoom="1.4242434"
     inkscape:cx="223.97856"
     inkscape:cy="245.04238"
     inkscape:window-width="1918"
     inkscape:window-height="1061"
     inkscape:window-x="0"
     inkscape:window-y="17"
     inkscape:window-maximized="1"
     inkscape:current-layer="svg528" />
  <g
     clip-path="url(#clip0_0_1)"
     id="g510">
    <circle
       cx="211.5"
       cy="211.5"
       r="171.5"
       fill="#960018"
       id="circle488" />
    <path
       d="M116.037 156L121.917 114H135.807C138.707 114 141.347 114.55 143.727 115.65C146.127 116.73 148.147 118.24 149.787 120.18C151.447 122.1 152.637 124.33 153.357 126.87C154.097 129.39 154.267 132.1 153.867 135C153.467 137.9 152.547 140.62 151.107 143.16C149.667 145.68 147.847 147.91 145.647 149.85C143.447 151.77 140.997 153.28 138.297 154.38C135.617 155.46 132.827 156 129.927 156H116.037ZM119.727 152.76H130.347C132.807 152.76 135.177 152.3 137.457 151.38C139.737 150.46 141.797 149.19 143.637 147.57C145.497 145.93 147.037 144.04 148.257 141.9C149.477 139.76 150.267 137.46 150.627 135C150.967 132.54 150.827 130.24 150.207 128.1C149.587 125.96 148.577 124.08 147.177 122.46C145.777 120.82 144.067 119.54 142.047 118.62C140.027 117.7 137.787 117.24 135.327 117.24H124.707L119.727 152.76ZM169.195 156.78C166.435 156.78 164.015 156.07 161.935 154.65C159.875 153.23 158.335 151.33 157.315 148.95C156.315 146.55 156.015 143.9 156.415 141C156.715 138.8 157.385 136.75 158.425 134.85C159.485 132.93 160.805 131.25 162.385 129.81C163.965 128.35 165.715 127.21 167.635 126.39C169.575 125.57 171.575 125.16 173.635 125.16C176.395 125.16 178.805 125.87 180.865 127.29C182.945 128.71 184.495 130.62 185.515 133.02C186.535 135.42 186.835 138.08 186.415 141C186.115 143.18 185.435 145.22 184.375 147.12C183.335 149.02 182.025 150.7 180.445 152.16C178.865 153.6 177.115 154.73 175.195 155.55C173.275 156.37 171.275 156.78 169.195 156.78ZM169.645 153.54C171.845 153.54 173.915 152.96 175.855 151.8C177.795 150.64 179.425 149.11 180.745 147.21C182.065 145.31 182.875 143.24 183.175 141C183.495 138.74 183.265 136.65 182.485 134.73C181.705 132.81 180.515 131.28 178.915 130.14C177.315 128.98 175.405 128.4 173.185 128.4C170.965 128.4 168.885 128.98 166.945 130.14C165.005 131.3 163.385 132.84 162.085 134.76C160.785 136.66 159.975 138.74 159.655 141C159.335 143.34 159.575 145.46 160.375 147.36C161.175 149.24 162.385 150.74 164.005 151.86C165.625 152.98 167.505 153.54 169.645 153.54ZM217.834 137.55L215.254 156H212.014L214.534 138.06C214.774 136.28 214.564 134.66 213.904 133.2C213.244 131.74 212.244 130.58 210.904 129.72C209.584 128.86 208.034 128.43 206.254 128.43C204.474 128.43 202.794 128.86 201.214 129.72C199.634 130.58 198.314 131.74 197.254 133.2C196.194 134.66 195.534 136.28 195.274 138.06L192.754 156H189.514L193.714 126H196.954L196.324 130.59C197.644 128.93 199.254 127.61 201.154 126.63C203.074 125.65 205.084 125.16 207.184 125.16C209.484 125.16 211.484 125.72 213.184 126.84C214.904 127.94 216.184 129.43 217.024 131.31C217.884 133.19 218.154 135.27 217.834 137.55ZM250.175 126H253.415L249.215 156H245.975L246.755 149.85C245.435 151.93 243.735 153.61 241.655 154.89C239.595 156.15 237.245 156.78 234.605 156.78C232.425 156.78 230.435 156.37 228.635 155.55C226.835 154.71 225.305 153.57 224.045 152.13C222.805 150.67 221.905 148.99 221.345 147.09C220.805 145.17 220.695 143.11 221.015 140.91C221.315 138.73 221.995 136.69 223.055 134.79C224.135 132.89 225.495 131.22 227.135 129.78C228.795 128.32 230.625 127.19 232.625 126.39C234.645 125.57 236.735 125.16 238.895 125.16C241.555 125.16 243.775 125.81 245.555 127.11C247.335 128.39 248.615 130.07 249.395 132.15L250.175 126ZM234.995 153.6C237.315 153.6 239.375 153.04 241.175 151.92C242.995 150.78 244.475 149.25 245.615 147.33C246.755 145.41 247.495 143.3 247.835 141C248.175 138.64 248.025 136.51 247.385 134.61C246.765 132.69 245.705 131.17 244.205 130.05C242.725 128.91 240.845 128.34 238.565 128.34C236.265 128.34 234.085 128.91 232.025 130.05C229.965 131.19 228.235 132.72 226.835 134.64C225.455 136.56 224.605 138.68 224.285 141C223.965 143.36 224.235 145.49 225.095 147.39C225.975 149.29 227.285 150.8 229.025 151.92C230.765 153.04 232.755 153.6 234.995 153.6ZM274.067 129.24H266.477L262.667 156H259.427L263.237 129.24H257.507L257.927 126H263.657L264.947 116.58H268.187L266.897 126H274.487L274.067 129.24ZM287.847 156.78C285.087 156.78 282.667 156.07 280.587 154.65C278.527 153.23 276.987 151.33 275.967 148.95C274.967 146.55 274.667 143.9 275.067 141C275.367 138.8 276.037 136.75 277.077 134.85C278.137 132.93 279.457 131.25 281.037 129.81C282.617 128.35 284.367 127.21 286.287 126.39C288.227 125.57 290.227 125.16 292.287 125.16C294.467 125.16 296.417 125.59 298.137 126.45C299.877 127.29 301.307 128.48 302.427 130.02C303.547 131.56 304.317 133.38 304.737 135.48C305.177 137.56 305.187 139.84 304.767 142.32H278.277C278.197 144.46 278.567 146.38 279.387 148.08C280.227 149.76 281.407 151.09 282.927 152.07C284.467 153.03 286.257 153.52 288.297 153.54C290.517 153.54 292.607 152.96 294.567 151.8C296.527 150.62 298.177 149.01 299.517 146.97L302.667 147.72C301.087 150.38 298.967 152.56 296.307 154.26C293.667 155.94 290.847 156.78 287.847 156.78ZM278.577 139.56H301.917C302.077 137.5 301.737 135.61 300.897 133.89C300.077 132.15 298.887 130.76 297.327 129.72C295.767 128.68 293.957 128.16 291.897 128.16C289.817 128.16 287.857 128.67 286.017 129.69C284.177 130.71 282.597 132.09 281.277 133.83C279.977 135.55 279.077 137.46 278.577 139.56Z"
       fill="white"
       id="path490" />
    <path
       d="M178.896 255.67C176.836 255.65 174.866 256 172.986 256.72C171.126 257.42 169.566 258.4 168.306 259.66C167.046 260.92 166.286 262.39 166.026 264.07C165.766 266.01 166.066 267.51 166.926 268.57C167.806 269.63 169.086 270.43 170.766 270.97C172.466 271.49 174.386 271.96 176.526 272.38C179.106 272.84 181.466 273.55 183.606 274.51C185.746 275.45 187.396 276.71 188.556 278.29C189.736 279.85 190.166 281.79 189.846 284.11C189.546 286.35 188.646 288.31 187.146 289.99C185.666 291.67 183.826 293.01 181.626 294.01C179.426 294.99 177.086 295.56 174.606 295.72L173.766 301.72H171.126L171.996 295.72C169.936 295.6 168.006 295.19 166.206 294.49C164.426 293.77 162.916 292.8 161.676 291.58C160.456 290.34 159.666 288.89 159.306 287.23L162.516 286.09C162.816 287.45 163.526 288.62 164.646 289.6C165.766 290.56 167.126 291.29 168.726 291.79C170.326 292.29 171.986 292.54 173.706 292.54C175.746 292.54 177.706 292.19 179.586 291.49C181.466 290.79 183.046 289.82 184.326 288.58C185.606 287.32 186.366 285.83 186.606 284.11C186.846 282.39 186.476 280.98 185.496 279.88C184.516 278.76 183.176 277.88 181.476 277.24C179.776 276.58 177.976 276.07 176.076 275.71C173.316 275.21 170.866 274.55 168.726 273.73C166.606 272.89 164.996 271.71 163.896 270.19C162.816 268.67 162.446 266.63 162.786 264.07C163.106 261.85 164.006 259.9 165.486 258.22C166.986 256.54 168.836 255.21 171.036 254.23C173.256 253.23 175.596 252.65 178.056 252.49L178.926 246.28H181.566L180.696 252.49C182.676 252.61 184.546 253.02 186.306 253.72C188.086 254.42 189.596 255.38 190.836 256.6C192.096 257.82 192.936 259.29 193.356 261.01L190.086 262.12C189.806 260.74 189.096 259.57 187.956 258.61C186.816 257.65 185.446 256.92 183.846 256.42C182.246 255.92 180.596 255.67 178.896 255.67ZM214.052 255.67C211.992 255.65 210.022 256 208.142 256.72C206.282 257.42 204.722 258.4 203.462 259.66C202.202 260.92 201.442 262.39 201.182 264.07C200.922 266.01 201.222 267.51 202.082 268.57C202.962 269.63 204.242 270.43 205.922 270.97C207.622 271.49 209.542 271.96 211.682 272.38C214.262 272.84 216.622 273.55 218.762 274.51C220.902 275.45 222.552 276.71 223.712 278.29C224.892 279.85 225.322 281.79 225.002 284.11C224.702 286.35 223.802 288.31 222.302 289.99C220.822 291.67 218.982 293.01 216.782 294.01C214.582 294.99 212.242 295.56 209.762 295.72L208.922 301.72H206.282L207.152 295.72C205.092 295.6 203.162 295.19 201.362 294.49C199.582 293.77 198.072 292.8 196.832 291.58C195.612 290.34 194.822 288.89 194.462 287.23L197.672 286.09C197.972 287.45 198.682 288.62 199.802 289.6C200.922 290.56 202.282 291.29 203.882 291.79C205.482 292.29 207.142 292.54 208.862 292.54C210.902 292.54 212.862 292.19 214.742 291.49C216.622 290.79 218.202 289.82 219.482 288.58C220.762 287.32 221.522 285.83 221.762 284.11C222.002 282.39 221.632 280.98 220.652 279.88C219.672 278.76 218.332 277.88 216.632 277.24C214.932 276.58 213.132 276.07 211.232 275.71C208.472 275.21 206.022 274.55 203.882 273.73C201.762 272.89 200.152 271.71 199.052 270.19C197.972 268.67 197.602 266.63 197.942 264.07C198.262 261.85 199.162 259.9 200.642 258.22C202.142 256.54 203.992 255.21 206.192 254.23C208.412 253.23 210.752 252.65 213.212 252.49L214.082 246.28H216.722L215.852 252.49C217.832 252.61 219.702 253.02 221.462 253.72C223.242 254.42 224.752 255.38 225.992 256.6C227.252 257.82 228.092 259.29 228.512 261.01L225.242 262.12C224.962 260.74 224.252 259.57 223.112 258.61C221.972 257.65 220.602 256.92 219.002 256.42C217.402 255.92 215.752 255.67 214.052 255.67ZM249.208 255.67C247.148 255.65 245.178 256 243.298 256.72C241.438 257.42 239.878 258.4 238.618 259.66C237.358 260.92 236.598 262.39 236.338 264.07C236.078 266.01 236.378 267.51 237.238 268.57C238.118 269.63 239.398 270.43 241.078 270.97C242.778 271.49 244.698 271.96 246.838 272.38C249.418 272.84 251.778 273.55 253.918 274.51C256.058 275.45 257.708 276.71 258.868 278.29C260.048 279.85 260.478 281.79 260.158 284.11C259.858 286.35 258.958 288.31 257.458 289.99C255.978 291.67 254.138 293.01 251.938 294.01C249.738 294.99 247.398 295.56 244.918 295.72L244.078 301.72H241.438L242.308 295.72C240.248 295.6 238.318 295.19 236.518 294.49C234.738 293.77 233.228 292.8 231.988 291.58C230.768 290.34 229.978 288.89 229.618 287.23L232.828 286.09C233.128 287.45 233.838 288.62 234.958 289.6C236.078 290.56 237.438 291.29 239.038 291.79C240.638 292.29 242.298 292.54 244.018 292.54C246.058 292.54 248.018 292.19 249.898 291.49C251.778 290.79 253.358 289.82 254.638 288.58C255.918 287.32 256.678 285.83 256.918 284.11C257.158 282.39 256.788 280.98 255.808 279.88C254.828 278.76 253.488 277.88 251.788 277.24C250.088 276.58 248.288 276.07 246.388 275.71C243.628 275.21 241.178 274.55 239.038 273.73C236.918 272.89 235.308 271.71 234.208 270.19C233.128 268.67 232.758 266.63 233.098 264.07C233.418 261.85 234.318 259.9 235.798 258.22C237.298 256.54 239.148 255.21 241.348 254.23C243.568 253.23 245.908 252.65 248.368 252.49L249.238 246.28H251.878L251.008 252.49C252.988 252.61 254.858 253.02 256.618 253.72C258.398 254.42 259.908 255.38 261.148 256.6C262.408 257.82 263.248 259.29 263.668 261.01L260.398 262.12C260.118 260.74 259.408 259.57 258.268 258.61C257.128 257.65 255.758 256.92 254.158 256.42C252.558 255.92 250.908 255.67 249.208 255.67Z"
       fill="white"
       id="path492" />
    <g
       clip-path="url(#clip1_0_1)"
       id="g508">
      <path
         d="M233.25 188H210.583C209.733 188 209.167 188.567 209.167 189.417C209.167 190.267 209.733 190.833 210.583 190.833H233.25C234.1 190.833 234.667 190.267 234.667 189.417C234.667 188.567 234.1 188 233.25 188Z"
         fill="white"
         id="path494" />
      <path
         d="M209.45 184.317C209.45 184.883 210.017 185.167 210.583 185.167H233.25C233.817 185.167 234.383 184.883 234.383 184.317L240.05 172.983C240.333 172.7 240.333 171.85 240.05 171.567C239.767 171.283 238.917 171 238.35 171.283L227.867 176.383L223.05 171.567C222.483 171 221.633 171 221.067 171.567L216.25 176.383L205.483 171.283C204.917 171 204.35 171 203.783 171.567C203.217 172.133 203.5 172.7 203.783 172.983L209.45 184.317Z"
         fill="white"
         id="path496" />
      <path
         d="M220.5 207.55V202.45C218.8 202.733 217.667 203.867 217.667 205C217.667 206.133 218.517 206.983 220.5 207.55Z"
         fill="white"
         id="path498" />
      <path
         d="M194.433 205.567C192.167 203.017 182.533 202.45 179.417 202.167C179.133 202.167 178.567 202.167 178.283 202.45C178.283 202.733 178 203.3 178 203.583V231.917C178 232.767 178.567 233.333 179.417 233.333H187.917C188.483 233.333 189.05 233.05 189.333 232.483C189.617 231.917 194.433 214.067 195 206.7C195 206.133 195 205.85 194.433 205.567Z"
         fill="white"
         id="path500" />
      <path
         d="M203.783 207.833C206.05 208.117 208.6 208.967 210.583 209.533C212.283 210.1 213.983 210.667 214.833 210.667C214.833 210.667 217.383 210.667 220.5 211.233V210.383C216.817 209.533 214.833 207.55 214.833 205C214.833 202.167 217.383 199.9 220.5 199.333V197.917C220.5 197.067 221.067 196.5 221.917 196.5C222.767 196.5 223.333 197.067 223.333 197.917V199.333C226.45 199.9 228.717 201.883 229 204.433C229 205.283 228.433 205.85 227.583 205.85C226.733 205.85 226.167 205.283 226.167 204.433C226.167 203.3 224.75 202.167 223.333 201.883V207.55C227.017 208.4 229 210.383 229 212.933C229 213.217 229 213.217 229 213.5C230.7 214.633 231.833 216.333 231.833 218.6L232.967 218.883L236.367 217.467C237.783 216.9 239.2 216.617 240.333 216.617C242.6 216.617 244.3 217.467 246 218.6C246 218.033 246 217.75 246 217.183C246 208.967 234.95 194.233 234.383 193.667C234.1 193.95 233.817 193.667 233.25 193.667H210.583C210.017 193.667 209.733 193.95 209.45 194.233C209.167 194.517 204.35 201.033 201.233 207.55C201.8 207.55 202.65 207.55 203.217 207.833H203.783Z"
         fill="white"
         id="path502" />
      <path
         d="M223.333 211.8C224.183 212.083 225.033 212.367 225.883 212.65C225.6 212.083 224.75 211.517 223.333 211.233V211.8Z"
         fill="white"
         id="path504" />
      <path
         d="M237.5 220.583L227.583 224.833C224.75 224.833 219.083 224.833 217.667 224.833C216.25 224.833 208.883 222.567 210.017 222C210.3 222 210.867 222 212 222C218.517 222.567 229 223.983 229 219.167C229 214.35 217.667 213.5 214.833 213.5C212 213.5 207.467 210.95 203.5 210.667C201.8 210.667 199.817 210.383 197.55 210.1C196.7 216.333 194.15 225.117 192.733 229.367L207.75 236.167C213.417 238.433 217.1 240.983 229 236.167C229 236.167 246 229.083 246 224.833C246 221.433 242.033 219.167 237.5 220.583Z"
         fill="white"
         id="path506" />
    </g>
  </g>
  <defs
     id="defs526">
    <clipPath
       id="clip0_0_1">
      <rect
         width="343"
         height="343"
         fill="white"
         transform="translate(40 40)"
         id="rect520" />
    </clipPath>
    <clipPath
       id="clip1_0_1">
      <rect
         width="68"
         height="68"
         fill="white"
         transform="translate(178 171)"
         id="rect523" />
    </clipPath>
  </defs>
</svg>
