<?xml version="1.0" encoding="UTF-8" standalone="no"?>
<svg
   width="423"
   height="423"
   viewBox="0 0 423 423"
   fill="none"
   version="1.1"
   id="svg758"
   sodipodi:docname="hire_me_logo.svg"
   inkscape:version="1.2.2 (b0a8486, 2022-12-01)"
   xmlns:inkscape="http://www.inkscape.org/namespaces/inkscape"
   xmlns:sodipodi="http://sodipodi.sourceforge.net/DTD/sodipodi-0.dtd"
   xmlns="http://www.w3.org/2000/svg"
   xmlns:svg="http://www.w3.org/2000/svg">
  <sodipodi:namedview
     id="namedview760"
     pagecolor="#505050"
     bordercolor="#eeeeee"
     borderopacity="1"
     inkscape:showpageshadow="0"
     inkscape:pageopacity="0"
     inkscape:pagecheckerboard="0"
     inkscape:deskcolor="#505050"
     showgrid="false"
     inkscape:zoom="1.0295508"
     inkscape:cx="133.06774"
     inkscape:cy="211.74282"
     inkscape:window-width="1918"
     inkscape:window-height="1061"
     inkscape:window-x="0"
     inkscape:window-y="17"
     inkscape:window-maximized="1"
     inkscape:current-layer="svg758" />
  <g
     clip-path="url(#clip0_0_1)"
     id="g740">
    <circle
       cx="211.5"
       cy="211.5"
       r="171.5"
       fill="#960018"
       id="circle728" />
    <g
       clip-path="url(#clip1_0_1)"
       id="g738">
      <path
         d="M216.146 165.042H211.5V174.333H216.146C218.933 174.333 220.792 172.475 220.792 169.687C220.792 166.9 218.933 165.042 216.146 165.042Z"
         fill="#FFFEFE"
         id="path730" />
      <path
         d="M178.979 165.042C176.192 165.042 174.333 166.9 174.333 169.687V188.271C174.333 191.058 176.192 192.917 178.979 192.917C181.767 192.917 183.625 191.058 183.625 188.271V169.687C183.625 166.9 181.767 165.042 178.979 165.042Z"
         fill="#FFFEFE"
         id="path732" />
      <path
         d="M216.146 183.625H211.5V192.917H216.146C218.933 192.917 220.792 191.058 220.792 188.271C220.792 185.483 218.933 183.625 216.146 183.625Z"
         fill="#FFFEFE"
         id="path734" />
      <path
         d="M316.496 288.621L242.163 226.367C252.383 212.429 257.958 196.633 257.958 179.908C257.958 135.308 222.65 100 178.979 100C135.308 100 100 135.308 100 178.979C100 222.65 135.308 257.958 178.979 257.958C195.704 257.958 212.429 252.383 225.438 242.163L288.621 316.496C292.337 320.213 297.912 322.071 302.558 322.071C308.133 322.071 312.779 320.213 316.496 316.496C320.213 312.779 322.071 307.204 322.071 302.558C323 297.912 321.142 292.337 316.496 288.621ZM155.75 188.271C155.75 195.704 149.246 202.208 141.813 202.208C134.379 202.208 127.875 195.704 127.875 188.271C127.875 185.483 129.733 183.625 132.521 183.625C135.308 183.625 137.167 185.483 137.167 188.271C137.167 191.058 139.025 192.917 141.813 192.917C144.6 192.917 146.458 191.058 146.458 188.271V160.396C146.458 157.608 148.317 155.75 151.104 155.75C153.892 155.75 155.75 157.608 155.75 160.396V188.271ZM192.917 188.271C192.917 195.704 186.413 202.208 178.979 202.208C171.546 202.208 165.042 195.704 165.042 188.271V169.688C165.042 162.254 171.546 155.75 178.979 155.75C186.413 155.75 192.917 162.254 192.917 169.688V188.271ZM230.083 188.271C230.083 195.704 223.579 202.208 216.146 202.208H206.854C204.067 202.208 202.208 200.35 202.208 197.563V160.396C202.208 157.608 204.067 155.75 206.854 155.75H216.146C223.579 155.75 230.083 162.254 230.083 169.688C230.083 173.404 229.154 176.192 226.367 178.979C229.154 181.767 230.083 184.554 230.083 188.271Z"
         fill="#FFFEFE"
         id="path736" />
    </g>
  </g>
  <defs
     id="defs756">
    <clipPath
       id="clip0_0_1">
      <rect
         width="343"
         height="343"
         fill="white"
         transform="translate(40 40)"
         id="rect750" />
    </clipPath>
    <clipPath
       id="clip1_0_1">
      <rect
         width="223"
         height="223"
         fill="white"
         transform="translate(100 100)"
         id="rect753" />
    </clipPath>
  </defs>
</svg>
