<?xml version="1.0" encoding="UTF-8" standalone="no"?>
<svg
   width="423"
   height="423"
   viewBox="0 0 423 423"
   fill="none"
   version="1.1"
   id="svg1063"
   sodipodi:docname="motto_logo.svg"
   inkscape:version="1.2.2 (b0a8486, 2022-12-01)"
   xmlns:inkscape="http://www.inkscape.org/namespaces/inkscape"
   xmlns:sodipodi="http://sodipodi.sourceforge.net/DTD/sodipodi-0.dtd"
   xmlns="http://www.w3.org/2000/svg"
   xmlns:svg="http://www.w3.org/2000/svg">
  <sodipodi:namedview
     id="namedview1065"
     pagecolor="#505050"
     bordercolor="#eeeeee"
     borderopacity="1"
     inkscape:showpageshadow="0"
     inkscape:pageopacity="0"
     inkscape:pagecheckerboard="0"
     inkscape:deskcolor="#505050"
     showgrid="false"
     inkscape:zoom="1.0295508"
     inkscape:cx="155.40758"
     inkscape:cy="205.91504"
     inkscape:window-width="1918"
     inkscape:window-height="1061"
     inkscape:window-x="0"
     inkscape:window-y="17"
     inkscape:window-maximized="1"
     inkscape:current-layer="svg1063" />
  <g
     clip-path="url(#clip0_0_1)"
     id="g1045">
    <circle
       cx="211.5"
       cy="211.5"
       r="171.5"
       fill="#960018"
       id="circle1031" />
    <path
       d="M97.3038 156L92.4438 114H95.7738L100.034 150.63L114.464 114H117.284L121.514 150.63L135.944 114H139.274L122.714 156H118.784L114.794 121.65L101.204 156H97.3038ZM167.239 137.55L164.659 156H161.419L163.939 138.06C164.179 136.28 163.969 134.66 163.309 133.2C162.649 131.74 161.649 130.58 160.309 129.72C158.989 128.86 157.439 128.43 155.659 128.43C153.879 128.43 152.199 128.86 150.619 129.72C149.039 130.58 147.719 131.74 146.659 133.2C145.599 134.66 144.939 136.28 144.679 138.06L142.159 156H138.919L145.219 111H148.459L145.729 130.59C147.049 128.93 148.659 127.61 150.559 126.63C152.479 125.65 154.489 125.16 156.589 125.16C158.889 125.16 160.889 125.72 162.589 126.84C164.309 127.94 165.589 129.43 166.429 131.31C167.289 133.19 167.559 135.27 167.239 137.55ZM199.55 126H202.79L198.59 156H195.35L196.13 149.85C194.81 151.93 193.11 153.61 191.03 154.89C188.97 156.15 186.62 156.78 183.98 156.78C181.8 156.78 179.81 156.37 178.01 155.55C176.21 154.71 174.68 153.57 173.42 152.13C172.18 150.67 171.28 148.99 170.72 147.09C170.18 145.17 170.07 143.11 170.39 140.91C170.69 138.73 171.37 136.69 172.43 134.79C173.51 132.89 174.87 131.22 176.51 129.78C178.17 128.32 180 127.19 182 126.39C184.02 125.57 186.11 125.16 188.27 125.16C190.93 125.16 193.15 125.81 194.93 127.11C196.71 128.39 197.99 130.07 198.77 132.15L199.55 126ZM184.37 153.6C186.69 153.6 188.75 153.04 190.55 151.92C192.37 150.78 193.85 149.25 194.99 147.33C196.13 145.41 196.87 143.3 197.21 141C197.55 138.64 197.4 136.51 196.76 134.61C196.14 132.69 195.08 131.17 193.58 130.05C192.1 128.91 190.22 128.34 187.94 128.34C185.64 128.34 183.46 128.91 181.4 130.05C179.34 131.19 177.61 132.72 176.21 134.64C174.83 136.56 173.98 138.68 173.66 141C173.34 143.36 173.61 145.49 174.47 147.39C175.35 149.29 176.66 150.8 178.4 151.92C180.14 153.04 182.13 153.6 184.37 153.6ZM223.442 129.24H215.852L212.042 156H208.802L212.612 129.24H206.882L207.302 126H213.032L214.322 116.58H217.562L216.272 126H223.862L223.442 129.24ZM271.025 111H274.265L267.965 156H264.725L265.595 149.82C264.255 151.92 262.535 153.61 260.435 154.89C258.335 156.15 255.955 156.78 253.295 156.78C251.115 156.78 249.125 156.37 247.325 155.55C245.545 154.73 244.035 153.6 242.795 152.16C241.555 150.7 240.655 149.02 240.095 147.12C239.555 145.22 239.435 143.18 239.735 141C240.035 138.82 240.725 136.78 241.805 134.88C242.905 132.96 244.275 131.28 245.915 129.84C247.575 128.38 249.415 127.24 251.435 126.42C253.455 125.6 255.555 125.19 257.735 125.19C260.395 125.19 262.595 125.83 264.335 127.11C266.075 128.37 267.325 130.04 268.085 132.12L271.025 111ZM253.745 153.6C256.065 153.6 258.125 153.04 259.925 151.92C261.745 150.78 263.225 149.25 264.365 147.33C265.505 145.41 266.245 143.3 266.585 141C266.925 138.64 266.775 136.51 266.135 134.61C265.515 132.69 264.455 131.17 262.955 130.05C261.475 128.91 259.595 128.34 257.315 128.34C255.015 128.34 252.835 128.91 250.775 130.05C248.735 131.19 247.015 132.72 245.615 134.64C244.215 136.56 243.355 138.68 243.035 141C242.715 143.36 242.985 145.49 243.845 147.39C244.725 149.29 246.035 150.8 247.775 151.92C249.515 153.04 251.505 153.6 253.745 153.6ZM288.082 156.78C285.322 156.78 282.902 156.07 280.822 154.65C278.762 153.23 277.222 151.33 276.202 148.95C275.202 146.55 274.902 143.9 275.302 141C275.602 138.8 276.272 136.75 277.312 134.85C278.372 132.93 279.692 131.25 281.272 129.81C282.852 128.35 284.602 127.21 286.522 126.39C288.462 125.57 290.462 125.16 292.522 125.16C295.282 125.16 297.692 125.87 299.752 127.29C301.832 128.71 303.382 130.62 304.402 133.02C305.422 135.42 305.722 138.08 305.302 141C305.002 143.18 304.322 145.22 303.262 147.12C302.222 149.02 300.912 150.7 299.332 152.16C297.752 153.6 296.002 154.73 294.082 155.55C292.162 156.37 290.162 156.78 288.082 156.78ZM288.532 153.54C290.732 153.54 292.802 152.96 294.742 151.8C296.682 150.64 298.312 149.11 299.632 147.21C300.952 145.31 301.762 143.24 302.062 141C302.382 138.74 302.152 136.65 301.372 134.73C300.592 132.81 299.402 131.28 297.802 130.14C296.202 128.98 294.292 128.4 292.072 128.4C289.852 128.4 287.772 128.98 285.832 130.14C283.892 131.3 282.272 132.84 280.972 134.76C279.672 136.66 278.862 138.74 278.542 141C278.222 143.34 278.462 145.46 279.262 147.36C280.062 149.24 281.272 150.74 282.892 151.86C284.512 152.98 286.392 153.54 288.532 153.54ZM323.89 156L329.77 114H333.01L327.13 156H323.89Z"
       fill="white"
       id="path1033" />
    <path
       d="M104.36 295.57C102.7 295.55 101.11 295.26 99.5904 294.7C98.0904 294.12 96.8204 293.35 95.7804 292.39C94.7404 291.43 94.0704 290.34 93.7704 289.12L96.8004 287.89C97.0204 288.79 97.5604 289.6 98.4204 290.32C99.2804 291.04 100.3 291.61 101.48 292.03C102.66 292.43 103.83 292.63 104.99 292.63C106.35 292.63 107.65 292.4 108.89 291.94C110.15 291.48 111.21 290.83 112.07 289.99C112.93 289.15 113.43 288.16 113.57 287.02C113.75 285.82 113.49 284.88 112.79 284.2C112.11 283.5 111.19 282.94 110.03 282.52C108.89 282.08 107.71 281.67 106.49 281.29C104.39 280.65 102.58 280 101.06 279.34C99.5404 278.66 98.4104 277.8 97.6704 276.76C96.9304 275.72 96.6804 274.35 96.9204 272.65C97.1604 270.89 97.8804 269.36 99.0804 268.06C100.3 266.76 101.79 265.76 103.55 265.06C105.31 264.34 107.14 263.98 109.04 263.98C111.5 263.98 113.65 264.52 115.49 265.6C117.35 266.68 118.58 268.1 119.18 269.86L116.3 271.42C116.04 270.5 115.52 269.71 114.74 269.05C113.98 268.39 113.07 267.88 112.01 267.52C110.97 267.16 109.9 266.97 108.8 266.95C107.4 266.93 106.06 267.15 104.78 267.61C103.5 268.05 102.43 268.7 101.57 269.56C100.73 270.4 100.22 271.42 100.04 272.62C99.8604 273.82 100.07 274.74 100.67 275.38C101.27 276.02 102.15 276.54 103.31 276.94C104.47 277.32 105.81 277.77 107.33 278.29C109.11 278.87 110.75 279.52 112.25 280.24C113.77 280.94 114.95 281.82 115.79 282.88C116.63 283.94 116.93 285.31 116.69 286.99C116.43 288.75 115.68 290.28 114.44 291.58C113.22 292.88 111.71 293.88 109.91 294.58C108.13 295.28 106.28 295.61 104.36 295.57ZM139.594 268.24H132.004L128.194 295H124.954L128.764 268.24H123.034L123.454 265H129.184L130.474 255.58H133.714L132.424 265H140.014L139.594 268.24ZM169.785 265H173.025L168.825 295H165.585L166.365 288.85C165.045 290.93 163.345 292.61 161.265 293.89C159.205 295.15 156.855 295.78 154.215 295.78C152.035 295.78 150.045 295.37 148.245 294.55C146.445 293.71 144.915 292.57 143.655 291.13C142.415 289.67 141.515 287.99 140.955 286.09C140.415 284.17 140.305 282.11 140.625 279.91C140.925 277.73 141.605 275.69 142.665 273.79C143.745 271.89 145.105 270.22 146.745 268.78C148.405 267.32 150.235 266.19 152.235 265.39C154.255 264.57 156.345 264.16 158.505 264.16C161.165 264.16 163.385 264.81 165.165 266.11C166.945 267.39 168.225 269.07 169.005 271.15L169.785 265ZM154.605 292.6C156.925 292.6 158.985 292.04 160.785 290.92C162.605 289.78 164.085 288.25 165.225 286.33C166.365 284.41 167.105 282.3 167.445 280C167.785 277.64 167.635 275.51 166.995 273.61C166.375 271.69 165.315 270.17 163.815 269.05C162.335 267.91 160.455 267.34 158.175 267.34C155.875 267.34 153.695 267.91 151.635 269.05C149.575 270.19 147.845 271.72 146.445 273.64C145.065 275.56 144.215 277.68 143.895 280C143.575 282.36 143.845 284.49 144.705 286.39C145.585 288.29 146.895 289.8 148.635 290.92C150.375 292.04 152.365 292.6 154.605 292.6ZM203.126 276.55L200.546 295H197.306L199.826 277.06C200.066 275.28 199.856 273.66 199.196 272.2C198.536 270.74 197.536 269.58 196.196 268.72C194.876 267.86 193.326 267.43 191.546 267.43C189.766 267.43 188.086 267.86 186.506 268.72C184.926 269.58 183.606 270.74 182.546 272.2C181.486 273.66 180.826 275.28 180.566 277.06L178.046 295H174.806L179.006 265H182.246L181.616 269.59C182.936 267.93 184.546 266.61 186.446 265.63C188.366 264.65 190.376 264.16 192.476 264.16C194.776 264.16 196.776 264.72 198.476 265.84C200.196 266.94 201.476 268.43 202.316 270.31C203.176 272.19 203.446 274.27 203.126 276.55ZM237.568 250H240.808L234.508 295H231.268L232.138 288.82C230.798 290.92 229.078 292.61 226.978 293.89C224.878 295.15 222.498 295.78 219.838 295.78C217.658 295.78 215.668 295.37 213.868 294.55C212.088 293.73 210.578 292.6 209.338 291.16C208.098 289.7 207.198 288.02 206.638 286.12C206.098 284.22 205.978 282.18 206.278 280C206.578 277.82 207.268 275.78 208.348 273.88C209.448 271.96 210.818 270.28 212.458 268.84C214.118 267.38 215.958 266.24 217.978 265.42C219.998 264.6 222.098 264.19 224.278 264.19C226.938 264.19 229.138 264.83 230.878 266.11C232.618 267.37 233.868 269.04 234.628 271.12L237.568 250ZM220.288 292.6C222.608 292.6 224.668 292.04 226.468 290.92C228.288 289.78 229.768 288.25 230.908 286.33C232.048 284.41 232.788 282.3 233.128 280C233.468 277.64 233.318 275.51 232.678 273.61C232.058 271.69 230.998 270.17 229.498 269.05C228.018 267.91 226.138 267.34 223.858 267.34C221.558 267.34 219.378 267.91 217.318 269.05C215.278 270.19 213.558 271.72 212.158 273.64C210.758 275.56 209.898 277.68 209.578 280C209.258 282.36 209.528 284.49 210.388 286.39C211.268 288.29 212.578 289.8 214.318 290.92C216.058 292.04 218.048 292.6 220.288 292.6ZM266.995 256.69L265.825 265H275.095L274.675 268.24H265.375L261.625 295H258.385L262.135 268.24H257.785L258.235 265H262.585L263.755 256.69C263.955 255.33 264.465 254.09 265.285 252.97C266.125 251.85 267.155 250.96 268.375 250.3C269.595 249.62 270.885 249.28 272.245 249.28C273.245 249.28 274.175 249.48 275.035 249.88C275.895 250.26 276.635 250.82 277.255 251.56L274.645 253.84C274.325 253.42 273.915 253.1 273.415 252.88C272.915 252.64 272.375 252.52 271.795 252.52C270.635 252.52 269.585 252.93 268.645 253.75C267.725 254.57 267.175 255.55 266.995 256.69ZM288.023 295.78C285.263 295.78 282.843 295.07 280.763 293.65C278.703 292.23 277.163 290.33 276.143 287.95C275.143 285.55 274.843 282.9 275.243 280C275.543 277.8 276.213 275.75 277.253 273.85C278.313 271.93 279.633 270.25 281.213 268.81C282.793 267.35 284.543 266.21 286.463 265.39C288.403 264.57 290.403 264.16 292.463 264.16C295.223 264.16 297.633 264.87 299.693 266.29C301.773 267.71 303.323 269.62 304.343 272.02C305.363 274.42 305.663 277.08 305.243 280C304.943 282.18 304.263 284.22 303.203 286.12C302.163 288.02 300.853 289.7 299.273 291.16C297.693 292.6 295.943 293.73 294.023 294.55C292.103 295.37 290.103 295.78 288.023 295.78ZM288.473 292.54C290.673 292.54 292.743 291.96 294.683 290.8C296.623 289.64 298.253 288.11 299.573 286.21C300.893 284.31 301.703 282.24 302.003 280C302.323 277.74 302.093 275.65 301.313 273.73C300.533 271.81 299.343 270.28 297.743 269.14C296.143 267.98 294.233 267.4 292.013 267.4C289.793 267.4 287.713 267.98 285.773 269.14C283.833 270.3 282.213 271.84 280.913 273.76C279.613 275.66 278.803 277.74 278.483 280C278.163 282.34 278.403 284.46 279.203 286.36C280.003 288.24 281.213 289.74 282.833 290.86C284.453 291.98 286.333 292.54 288.473 292.54ZM308.342 295L312.542 265H315.782L315.152 269.59C316.472 267.93 318.082 266.61 319.982 265.63C321.902 264.65 323.912 264.16 326.012 264.16C327.192 264.16 328.302 264.31 329.342 264.61L327.542 267.79C326.742 267.55 325.922 267.43 325.082 267.43C323.302 267.43 321.622 267.86 320.042 268.72C318.462 269.58 317.142 270.74 316.082 272.2C315.022 273.66 314.362 275.28 314.102 277.06L311.582 295H308.342Z"
       fill="white"
       id="path1035" />
    <g
       clip-path="url(#clip1_0_1)"
       id="g1043">
      <path
         d="M208.704 248.058C206.91 248.058 205.19 247.063 204.342 245.367L200.835 238.35C200.432 237.547 200.761 236.572 201.563 236.169C202.366 235.769 203.344 236.094 203.744 236.897L207.251 243.914C207.634 244.681 208.557 245.016 209.337 244.678L226.117 237.489C226.53 237.31 226.845 236.982 226.998 236.556C227.151 236.133 227.128 235.678 226.926 235.275L223.589 228.6C223.186 227.797 223.514 226.822 224.317 226.419C225.119 226.023 226.094 226.341 226.497 227.147L229.835 233.823C230.433 235.015 230.511 236.419 230.053 237.674C229.591 238.928 228.626 239.949 227.398 240.475L210.618 247.664C209.994 247.931 209.344 248.058 208.704 248.058Z"
         fill="white"
         id="path1037" />
      <path
         d="M235.233 186.801C225.632 177.201 214.699 171 207.374 171C204.793 171 202.733 171.747 201.257 173.226C195.537 178.946 201.501 193.87 214.832 207.202C224.433 216.799 235.366 223 242.691 223C245.272 223 247.332 222.252 248.808 220.774C254.528 215.057 248.564 200.133 235.233 186.801ZM246.51 218.479C245.665 219.321 244.381 219.75 242.691 219.75C237.361 219.75 227.39 215.158 217.133 204.901C216.5 204.267 216.5 203.237 217.133 202.603C217.767 201.969 218.797 201.969 219.431 202.603C229.626 212.801 238.925 216.5 242.691 216.5C243.858 216.5 244.18 216.214 244.212 216.178C244.846 215.545 245.876 215.545 246.51 216.178C247.144 216.812 247.144 217.842 246.51 218.479Z"
         fill="white"
         id="path1039" />
      <path
         d="M239.039 219.874L238.412 220.13L236.703 218.421C231.298 216.422 224.304 212.077 217.131 204.904C216.497 204.27 216.497 203.24 217.131 202.606C217.765 201.973 218.795 201.973 219.429 202.606C222.62 205.798 225.698 208.287 228.571 210.293L201.902 183.62L202.158 182.993C202.5 182.164 202.103 181.212 201.274 180.87C200.446 180.539 199.5 180.926 199.155 181.758L178.053 233.004C175.785 232.37 174.553 233.111 173.978 233.693C173.315 234.356 172.395 235.922 173.695 238.954C174.459 240.735 175.843 242.682 177.598 244.437C179.353 246.192 181.3 247.577 183.081 248.34C184.196 248.821 185.112 249 185.863 249C187.143 249 187.923 248.477 188.343 248.058C188.928 247.473 189.675 246.225 189.015 243.927L240.278 222.88C241.106 222.539 241.503 221.59 241.162 220.761C240.82 219.929 239.865 219.526 239.039 219.874Z"
         fill="white"
         id="path1041" />
    </g>
  </g>
  <defs
     id="defs1061">
    <clipPath
       id="clip0_0_1">
      <rect
         width="343"
         height="343"
         fill="white"
         transform="translate(40 40)"
         id="rect1055" />
    </clipPath>
    <clipPath
       id="clip1_0_1">
      <rect
         width="78"
         height="78"
         fill="white"
         transform="translate(173 171)"
         id="rect1058" />
    </clipPath>
  </defs>
</svg>
