<?xml version="1.0" encoding="UTF-8" standalone="no"?>
<svg
   width="423"
   height="423"
   viewBox="0 0 423 423"
   fill="none"
   version="1.1"
   id="svg1685"
   sodipodi:docname="my_services_logo.svg"
   inkscape:version="1.2.2 (b0a8486, 2022-12-01)"
   xmlns:inkscape="http://www.inkscape.org/namespaces/inkscape"
   xmlns:sodipodi="http://sodipodi.sourceforge.net/DTD/sodipodi-0.dtd"
   xmlns="http://www.w3.org/2000/svg"
   xmlns:svg="http://www.w3.org/2000/svg">
  <sodipodi:namedview
     id="namedview1687"
     pagecolor="#505050"
     bordercolor="#eeeeee"
     borderopacity="1"
     inkscape:showpageshadow="0"
     inkscape:pageopacity="0"
     inkscape:pagecheckerboard="0"
     inkscape:deskcolor="#505050"
     showgrid="false"
     inkscape:zoom="1.4560047"
     inkscape:cx="98.213966"
     inkscape:cy="103.70845"
     inkscape:window-width="1918"
     inkscape:window-height="1061"
     inkscape:window-x="0"
     inkscape:window-y="17"
     inkscape:window-maximized="1"
     inkscape:current-layer="svg1685" />
  <g
     clip-path="url(#clip0_0_1)"
     id="g1670">
    <circle
       cx="211.5"
       cy="211.5"
       r="171.5"
       fill="#960018"
       id="circle1662" />
    <path
       d="M172.902 156L186.912 114H189.042L196.752 146.13L213.432 114H215.562L217.842 156H214.542L212.712 121.98L196.782 152.7H194.832L187.512 121.98L176.172 156H172.902ZM246.226 126H249.616L226.906 171H223.456L231.046 156L224.476 126H228.016L233.266 151.53L246.226 126Z"
       fill="white"
       id="path1664" />
    <path
       d="M117.105 295.57C115.445 295.55 113.855 295.26 112.335 294.7C110.835 294.12 109.565 293.35 108.525 292.39C107.485 291.43 106.815 290.34 106.515 289.12L109.545 287.89C109.765 288.79 110.305 289.6 111.165 290.32C112.025 291.04 113.045 291.61 114.225 292.03C115.405 292.43 116.575 292.63 117.735 292.63C119.095 292.63 120.395 292.4 121.635 291.94C122.895 291.48 123.955 290.83 124.815 289.99C125.675 289.15 126.175 288.16 126.315 287.02C126.495 285.82 126.235 284.88 125.535 284.2C124.855 283.5 123.935 282.94 122.775 282.52C121.635 282.08 120.455 281.67 119.235 281.29C117.135 280.65 115.325 280 113.805 279.34C112.285 278.66 111.155 277.8 110.415 276.76C109.675 275.72 109.425 274.35 109.665 272.65C109.905 270.89 110.625 269.36 111.825 268.06C113.045 266.76 114.535 265.76 116.295 265.06C118.055 264.34 119.885 263.98 121.785 263.98C124.245 263.98 126.395 264.52 128.235 265.6C130.095 266.68 131.325 268.1 131.925 269.86L129.045 271.42C128.785 270.5 128.265 269.71 127.485 269.05C126.725 268.39 125.815 267.88 124.755 267.52C123.715 267.16 122.645 266.97 121.545 266.95C120.145 266.93 118.805 267.15 117.525 267.61C116.245 268.05 115.175 268.7 114.315 269.56C113.475 270.4 112.965 271.42 112.785 272.62C112.605 273.82 112.815 274.74 113.415 275.38C114.015 276.02 114.895 276.54 116.055 276.94C117.215 277.32 118.555 277.77 120.075 278.29C121.855 278.87 123.495 279.52 124.995 280.24C126.515 280.94 127.695 281.82 128.535 282.88C129.375 283.94 129.675 285.31 129.435 286.99C129.175 288.75 128.425 290.28 127.185 291.58C125.965 292.88 124.455 293.88 122.655 294.58C120.875 295.28 119.025 295.61 117.105 295.57ZM146.373 295.78C143.613 295.78 141.193 295.07 139.113 293.65C137.053 292.23 135.513 290.33 134.493 287.95C133.493 285.55 133.193 282.9 133.593 280C133.893 277.8 134.563 275.75 135.603 273.85C136.663 271.93 137.983 270.25 139.563 268.81C141.143 267.35 142.893 266.21 144.813 265.39C146.753 264.57 148.753 264.16 150.813 264.16C152.993 264.16 154.943 264.59 156.663 265.45C158.403 266.29 159.833 267.48 160.953 269.02C162.073 270.56 162.843 272.38 163.263 274.48C163.703 276.56 163.713 278.84 163.293 281.32H136.803C136.723 283.46 137.093 285.38 137.913 287.08C138.753 288.76 139.933 290.09 141.453 291.07C142.993 292.03 144.783 292.52 146.823 292.54C149.043 292.54 151.133 291.96 153.093 290.8C155.053 289.62 156.703 288.01 158.043 285.97L161.193 286.72C159.613 289.38 157.493 291.56 154.833 293.26C152.193 294.94 149.373 295.78 146.373 295.78ZM137.103 278.56H160.443C160.603 276.5 160.263 274.61 159.423 272.89C158.603 271.15 157.413 269.76 155.853 268.72C154.293 267.68 152.483 267.16 150.423 267.16C148.343 267.16 146.383 267.67 144.543 268.69C142.703 269.71 141.123 271.09 139.803 272.83C138.503 274.55 137.603 276.46 137.103 278.56ZM166.633 295L170.833 265H174.073L173.443 269.59C174.763 267.93 176.373 266.61 178.273 265.63C180.193 264.65 182.203 264.16 184.303 264.16C185.483 264.16 186.593 264.31 187.633 264.61L185.833 267.79C185.033 267.55 184.213 267.43 183.373 267.43C181.593 267.43 179.913 267.86 178.333 268.72C176.753 269.58 175.433 270.74 174.373 272.2C173.313 273.66 172.653 275.28 172.393 277.06L169.873 295H166.633ZM200.781 295H196.701L189.981 264.91H193.431L199.281 291.16L212.511 264.91H215.961L200.781 295ZM221.106 265H224.346L220.146 295H216.906L221.106 265ZM223.566 259.33C223.006 259.33 222.556 259.15 222.216 258.79C221.876 258.41 221.746 257.94 221.826 257.38C221.906 256.82 222.166 256.36 222.606 256C223.046 255.62 223.546 255.43 224.106 255.43C224.646 255.43 225.086 255.62 225.426 256C225.766 256.36 225.896 256.82 225.816 257.38C225.716 257.94 225.456 258.41 225.036 258.79C224.616 259.15 224.126 259.33 223.566 259.33ZM250.41 287.95L253.08 289.51C251.44 291.41 249.5 292.93 247.26 294.07C245.02 295.21 242.68 295.78 240.24 295.78C237.48 295.78 235.06 295.07 232.98 293.65C230.92 292.23 229.38 290.33 228.36 287.95C227.36 285.55 227.06 282.9 227.46 280C227.76 277.8 228.43 275.75 229.47 273.85C230.53 271.93 231.85 270.25 233.43 268.81C235.01 267.35 236.76 266.21 238.68 265.39C240.62 264.57 242.62 264.16 244.68 264.16C247.12 264.16 249.3 264.73 251.22 265.87C253.16 267.01 254.68 268.54 255.78 270.46L252.66 271.99C251.74 270.51 250.52 269.38 249 268.6C247.5 267.8 245.91 267.4 244.23 267.4C242.03 267.4 239.96 267.98 238.02 269.14C236.08 270.28 234.45 271.81 233.13 273.73C231.83 275.63 231.02 277.72 230.7 280C230.38 282.3 230.61 284.4 231.39 286.3C232.19 288.2 233.4 289.72 235.02 290.86C236.64 291.98 238.53 292.54 240.69 292.54C242.51 292.54 244.28 292.11 246 291.25C247.72 290.39 249.19 289.29 250.41 287.95ZM270.592 295.78C267.832 295.78 265.412 295.07 263.332 293.65C261.272 292.23 259.732 290.33 258.712 287.95C257.712 285.55 257.412 282.9 257.812 280C258.112 277.8 258.782 275.75 259.822 273.85C260.882 271.93 262.202 270.25 263.782 268.81C265.362 267.35 267.112 266.21 269.032 265.39C270.972 264.57 272.972 264.16 275.032 264.16C277.212 264.16 279.162 264.59 280.882 265.45C282.622 266.29 284.052 267.48 285.172 269.02C286.292 270.56 287.062 272.38 287.482 274.48C287.922 276.56 287.932 278.84 287.512 281.32H261.022C260.942 283.46 261.312 285.38 262.132 287.08C262.972 288.76 264.152 290.09 265.672 291.07C267.212 292.03 269.002 292.52 271.042 292.54C273.262 292.54 275.352 291.96 277.312 290.8C279.272 289.62 280.922 288.01 282.262 285.97L285.412 286.72C283.832 289.38 281.712 291.56 279.052 293.26C276.412 294.94 273.592 295.78 270.592 295.78ZM261.322 278.56H284.662C284.822 276.5 284.482 274.61 283.642 272.89C282.822 271.15 281.632 269.76 280.072 268.72C278.512 267.68 276.702 267.16 274.642 267.16C272.562 267.16 270.602 267.67 268.762 268.69C266.922 269.71 265.342 271.09 264.022 272.83C262.722 274.55 261.822 276.46 261.322 278.56ZM300.151 295.57C298.491 295.55 296.901 295.26 295.381 294.7C293.881 294.12 292.611 293.35 291.571 292.39C290.531 291.43 289.861 290.34 289.561 289.12L292.591 287.89C292.811 288.79 293.351 289.6 294.211 290.32C295.071 291.04 296.091 291.61 297.271 292.03C298.451 292.43 299.621 292.63 300.781 292.63C302.141 292.63 303.441 292.4 304.681 291.94C305.941 291.48 307.001 290.83 307.861 289.99C308.721 289.15 309.221 288.16 309.361 287.02C309.541 285.82 309.281 284.88 308.581 284.2C307.901 283.5 306.981 282.94 305.821 282.52C304.681 282.08 303.501 281.67 302.281 281.29C300.181 280.65 298.371 280 296.851 279.34C295.331 278.66 294.201 277.8 293.461 276.76C292.721 275.72 292.471 274.35 292.711 272.65C292.951 270.89 293.671 269.36 294.871 268.06C296.091 266.76 297.581 265.76 299.341 265.06C301.101 264.34 302.931 263.98 304.831 263.98C307.291 263.98 309.441 264.52 311.281 265.6C313.141 266.68 314.371 268.1 314.971 269.86L312.091 271.42C311.831 270.5 311.311 269.71 310.531 269.05C309.771 268.39 308.861 267.88 307.801 267.52C306.761 267.16 305.691 266.97 304.591 266.95C303.191 266.93 301.851 267.15 300.571 267.61C299.291 268.05 298.221 268.7 297.361 269.56C296.521 270.4 296.011 271.42 295.831 272.62C295.651 273.82 295.861 274.74 296.461 275.38C297.061 276.02 297.941 276.54 299.101 276.94C300.261 277.32 301.601 277.77 303.121 278.29C304.901 278.87 306.541 279.52 308.041 280.24C309.561 280.94 310.741 281.82 311.581 282.88C312.421 283.94 312.721 285.31 312.481 286.99C312.221 288.75 311.471 290.28 310.231 291.58C309.011 292.88 307.501 293.88 305.701 294.58C303.921 295.28 302.071 295.61 300.151 295.57Z"
       fill="white"
       id="path1666" />
    <path
       d="M221.917 216.38V222.158C220.355 221.778 219.174 220.803 219.078 219.653C219.012 218.871 218.262 218.284 217.548 218.361C216.768 218.426 216.19 219.112 216.256 219.891C216.477 222.515 218.817 224.572 221.917 225.056V226.583C221.917 227.365 222.551 228 223.333 228C224.115 228 224.75 227.365 224.75 226.583V225.05C227.98 224.523 230.417 222.234 230.417 219.5C230.417 216.845 228.561 215.057 224.75 214.119V208.342C226.311 208.722 227.493 209.697 227.589 210.847C227.651 211.626 228.391 212.204 229.119 212.139C229.898 212.074 230.476 211.388 230.411 210.606C230.19 207.985 227.85 205.928 224.75 205.444V203.917C224.75 203.135 224.115 202.5 223.333 202.5C222.551 202.5 221.917 203.135 221.917 203.917V205.449C218.687 205.976 216.25 208.266 216.25 211C216.25 213.655 218.109 215.443 221.917 216.38ZM224.75 217.043C226.637 217.59 227.583 218.375 227.583 219.5C227.583 220.704 226.379 221.75 224.75 222.152V217.043ZM221.917 208.348V213.456C220.027 212.912 219.083 212.125 219.083 211C219.083 209.796 220.287 208.747 221.917 208.348ZM237.5 179.833H186.5C182.596 179.833 179.417 183.012 179.417 186.917V235.083C179.417 238.988 182.596 242.167 186.5 242.167H237.5C241.404 242.167 244.583 238.988 244.583 235.083V186.917C244.583 183.012 241.404 179.833 237.5 179.833ZM197.833 185.5C198.615 185.5 199.25 186.135 199.25 186.917C199.25 187.699 198.615 188.333 197.833 188.333C197.051 188.333 196.417 187.699 196.417 186.917C196.417 186.135 197.051 185.5 197.833 185.5ZM192.167 185.5C192.949 185.5 193.583 186.135 193.583 186.917C193.583 187.699 192.949 188.333 192.167 188.333C191.385 188.333 190.75 187.699 190.75 186.917C190.75 186.135 191.385 185.5 192.167 185.5ZM186.5 185.5C187.282 185.5 187.917 186.135 187.917 186.917C187.917 187.699 187.282 188.333 186.5 188.333C185.718 188.333 185.083 187.699 185.083 186.917C185.083 186.135 185.718 185.5 186.5 185.5ZM241.75 235.083C241.75 237.426 239.843 239.333 237.5 239.333H186.5C184.157 239.333 182.25 237.426 182.25 235.083V194H241.75V235.083ZM195.635 227.85L200.035 225.651L202.234 230.051C202.483 230.547 202.981 230.833 203.5 230.833C203.712 230.833 203.928 230.785 204.135 230.683L209.801 227.85C210.501 227.498 210.784 226.648 210.436 225.949L208.237 221.548L212.638 219.35C213.065 219.134 213.357 218.721 213.411 218.245C213.465 217.769 213.278 217.301 212.909 216.992L195.91 202.826C195.487 202.474 194.901 202.401 194.402 202.633C193.904 202.865 193.583 203.367 193.583 203.917V226.583C193.583 227.073 193.838 227.53 194.255 227.787C194.668 228.045 195.193 228.068 195.635 227.85Z"
       fill="white"
       id="path1668" />
  </g>
  <defs
     id="defs1683">
    <clipPath
       id="clip0_0_1">
      <rect
         width="343"
         height="343"
         fill="white"
         transform="translate(40 40)"
         id="rect1680" />
    </clipPath>
  </defs>
</svg>
