<?xml version="1.0" encoding="UTF-8" standalone="no"?>
<svg
   width="423"
   height="423"
   viewBox="0 0 423 423"
   fill="none"
   version="1.1"
   id="svg1955"
   sodipodi:docname="portfolio_logo.svg"
   inkscape:version="1.2.2 (b0a8486, 2022-12-01)"
   xmlns:inkscape="http://www.inkscape.org/namespaces/inkscape"
   xmlns:sodipodi="http://sodipodi.sourceforge.net/DTD/sodipodi-0.dtd"
   xmlns="http://www.w3.org/2000/svg"
   xmlns:svg="http://www.w3.org/2000/svg">
  <sodipodi:namedview
     id="namedview1957"
     pagecolor="#505050"
     bordercolor="#eeeeee"
     borderopacity="1"
     inkscape:showpageshadow="0"
     inkscape:pageopacity="0"
     inkscape:pagecheckerboard="0"
     inkscape:deskcolor="#505050"
     showgrid="false"
     inkscape:zoom="1.0295508"
     inkscape:cx="230.19747"
     inkscape:cy="162.20666"
     inkscape:window-width="1918"
     inkscape:window-height="1061"
     inkscape:window-x="0"
     inkscape:window-y="17"
     inkscape:window-maximized="1"
     inkscape:current-layer="svg1955" />
  <g
     clip-path="url(#clip0_0_1)"
     id="g1937">
    <circle
       cx="211.5"
       cy="211.5"
       r="171.5"
       fill="#960018"
       id="circle1931" />
    <g
       clip-path="url(#clip1_0_1)"
       id="g1935">
      <path
         d="M166.041 202.199C172.136 214.074 182.71 223.254 195.542 227.482C192.847 220.457 190.896 211.704 189.698 202.199H166.041ZM256.969 155.741C250.874 143.866 240.3 134.686 227.468 130.458C230.163 137.483 232.114 146.235 233.313 155.741H256.969ZM216.272 128.107C214.701 127.959 213.113 127.866 211.505 127.866C209.898 127.866 208.309 127.959 206.738 128.107C203.812 133.385 200.792 142.769 199.045 155.741H223.965C222.218 142.769 219.199 133.385 216.272 128.107ZM166.041 155.741H189.698C190.896 146.226 192.857 137.473 195.542 130.458C182.71 134.695 172.127 143.875 166.041 155.741ZM188.276 178.97C188.276 174.296 188.462 169.622 188.796 165.032H162.38C161.116 169.474 160.401 174.129 160.401 178.97C160.401 183.811 161.116 188.466 162.38 192.907H188.796C188.462 188.317 188.276 183.644 188.276 178.97ZM260.63 165.032H234.214C234.548 169.622 234.734 174.296 234.734 178.97C234.734 183.644 234.548 188.317 234.214 192.907H260.63C261.894 188.466 262.609 183.811 262.609 178.97C262.609 174.129 261.894 169.474 260.63 165.032ZM206.738 229.832C208.309 229.981 209.898 230.074 211.505 230.074C213.113 230.074 214.701 229.981 216.272 229.832C219.199 224.555 222.218 215.17 223.965 202.199H199.045C200.792 215.17 203.812 224.555 206.738 229.832ZM262.749 238.957C279.687 224.453 290.484 202.961 290.484 178.97C290.484 135.42 255.055 99.9906 211.505 99.9906C167.955 99.9906 132.526 135.42 132.526 178.97C132.526 202.961 143.323 224.453 160.262 238.957L132.786 316.802C132.154 318.577 132.675 320.575 134.096 321.829C134.97 322.591 136.066 322.991 137.172 322.991C137.878 322.991 138.593 322.823 139.253 322.498L173.762 305.244L194.669 321.978C195.923 322.981 197.605 323.251 199.119 322.73C200.634 322.192 201.767 320.928 202.111 319.358L208.532 290.461L221.178 320.166C221.745 321.513 222.906 322.498 224.318 322.851C225.703 323.232 227.217 322.879 228.36 321.978L249.266 305.244L283.776 322.498C284.417 322.823 285.132 322.991 285.838 322.991C286.944 322.991 288.041 322.591 288.914 321.829C290.336 320.575 290.847 318.577 290.224 316.802L262.749 238.957ZM234.056 244.838L219.663 248.137C216.987 248.453 214.274 248.657 211.505 248.657C173.075 248.657 141.818 217.4 141.818 178.97C141.818 140.539 173.075 109.282 211.505 109.282C249.935 109.282 281.193 140.539 281.193 178.97C281.193 209.502 261.439 235.445 234.056 244.838ZM198.125 165.032C197.791 169.418 197.568 174.008 197.568 178.97C197.568 183.932 197.791 188.522 198.125 192.907H224.885C225.22 188.522 225.443 183.932 225.443 178.97C225.443 174.008 225.22 169.418 224.885 165.032H198.125ZM227.468 227.482C240.3 223.254 250.874 214.074 256.969 202.199H233.313C232.114 211.714 230.154 220.466 227.468 227.482Z"
         fill="white"
         id="path1933" />
    </g>
  </g>
  <defs
     id="defs1953">
    <clipPath
       id="clip0_0_1">
      <rect
         width="343"
         height="343"
         fill="white"
         transform="translate(40 40)"
         id="rect1947" />
    </clipPath>
    <clipPath
       id="clip1_0_1">
      <rect
         width="223"
         height="223"
         fill="white"
         transform="translate(100 100)"
         id="rect1950" />
    </clipPath>
  </defs>
</svg>
