<?xml version="1.0" encoding="UTF-8" standalone="no"?>
<svg
   width="423"
   height="423"
   viewBox="0 0 423 423"
   fill="none"
   version="1.1"
   id="svg2395"
   sodipodi:docname="social_media_logo.svg"
   inkscape:version="1.2.2 (b0a8486, 2022-12-01)"
   xmlns:inkscape="http://www.inkscape.org/namespaces/inkscape"
   xmlns:sodipodi="http://sodipodi.sourceforge.net/DTD/sodipodi-0.dtd"
   xmlns="http://www.w3.org/2000/svg"
   xmlns:svg="http://www.w3.org/2000/svg">
  <sodipodi:namedview
     id="namedview2397"
     pagecolor="#505050"
     bordercolor="#eeeeee"
     borderopacity="1"
     inkscape:showpageshadow="0"
     inkscape:pageopacity="0"
     inkscape:pagecheckerboard="0"
     inkscape:deskcolor="#505050"
     showgrid="false"
     inkscape:zoom="0.72800237"
     inkscape:cx="105.76889"
     inkscape:cy="-4.1208657"
     inkscape:window-width="1918"
     inkscape:window-height="1061"
     inkscape:window-x="0"
     inkscape:window-y="17"
     inkscape:window-maximized="1"
     inkscape:current-layer="svg2395" />
  <g
     clip-path="url(#clip0_0_1)"
     id="g2377">
    <circle
       cx="211.5"
       cy="211.5"
       r="171.5"
       fill="#960018"
       id="circle2367" />
    <path
       d="M93.5077 156L107.518 114H109.648L117.358 146.13L134.038 114H136.168L138.448 156H135.148L133.318 121.98L117.388 152.7H115.438L108.118 121.98L96.7777 156H93.5077ZM166.832 126H170.222L147.512 171H144.062L151.652 156L145.082 126H148.622L153.872 151.53L166.832 126ZM195.737 156.57C194.077 156.55 192.487 156.26 190.967 155.7C189.467 155.12 188.197 154.35 187.157 153.39C186.117 152.43 185.447 151.34 185.147 150.12L188.177 148.89C188.397 149.79 188.937 150.6 189.797 151.32C190.657 152.04 191.677 152.61 192.857 153.03C194.037 153.43 195.207 153.63 196.367 153.63C197.727 153.63 199.027 153.4 200.267 152.94C201.527 152.48 202.587 151.83 203.447 150.99C204.307 150.15 204.807 149.16 204.947 148.02C205.127 146.82 204.867 145.88 204.167 145.2C203.487 144.5 202.567 143.94 201.407 143.52C200.267 143.08 199.087 142.67 197.867 142.29C195.767 141.65 193.957 141 192.437 140.34C190.917 139.66 189.787 138.8 189.047 137.76C188.307 136.72 188.057 135.35 188.297 133.65C188.537 131.89 189.257 130.36 190.457 129.06C191.677 127.76 193.167 126.76 194.927 126.06C196.687 125.34 198.517 124.98 200.417 124.98C202.877 124.98 205.027 125.52 206.867 126.6C208.727 127.68 209.957 129.1 210.557 130.86L207.677 132.42C207.417 131.5 206.897 130.71 206.117 130.05C205.357 129.39 204.447 128.88 203.387 128.52C202.347 128.16 201.277 127.97 200.177 127.95C198.777 127.93 197.437 128.15 196.157 128.61C194.877 129.05 193.807 129.7 192.947 130.56C192.107 131.4 191.597 132.42 191.417 133.62C191.237 134.82 191.447 135.74 192.047 136.38C192.647 137.02 193.527 137.54 194.687 137.94C195.847 138.32 197.187 138.77 198.707 139.29C200.487 139.87 202.127 140.52 203.627 141.24C205.147 141.94 206.327 142.82 207.167 143.88C208.007 144.94 208.307 146.31 208.067 147.99C207.807 149.75 207.057 151.28 205.817 152.58C204.597 153.88 203.087 154.88 201.287 155.58C199.507 156.28 197.657 156.61 195.737 156.57ZM225.006 156.78C222.246 156.78 219.826 156.07 217.746 154.65C215.686 153.23 214.146 151.33 213.126 148.95C212.126 146.55 211.826 143.9 212.226 141C212.526 138.8 213.196 136.75 214.236 134.85C215.296 132.93 216.616 131.25 218.196 129.81C219.776 128.35 221.526 127.21 223.446 126.39C225.386 125.57 227.386 125.16 229.446 125.16C232.206 125.16 234.616 125.87 236.676 127.29C238.756 128.71 240.306 130.62 241.326 133.02C242.346 135.42 242.646 138.08 242.226 141C241.926 143.18 241.246 145.22 240.186 147.12C239.146 149.02 237.836 150.7 236.256 152.16C234.676 153.6 232.926 154.73 231.006 155.55C229.086 156.37 227.086 156.78 225.006 156.78ZM225.456 153.54C227.656 153.54 229.726 152.96 231.666 151.8C233.606 150.64 235.236 149.11 236.556 147.21C237.876 145.31 238.686 143.24 238.986 141C239.306 138.74 239.076 136.65 238.296 134.73C237.516 132.81 236.326 131.28 234.726 130.14C233.126 128.98 231.216 128.4 228.996 128.4C226.776 128.4 224.696 128.98 222.756 130.14C220.816 131.3 219.196 132.84 217.896 134.76C216.596 136.66 215.786 138.74 215.466 141C215.146 143.34 215.386 145.46 216.186 147.36C216.986 149.24 218.196 150.74 219.816 151.86C221.436 152.98 223.316 153.54 225.456 153.54ZM268.164 148.95L270.834 150.51C269.194 152.41 267.254 153.93 265.014 155.07C262.774 156.21 260.434 156.78 257.994 156.78C255.234 156.78 252.814 156.07 250.734 154.65C248.674 153.23 247.134 151.33 246.114 148.95C245.114 146.55 244.814 143.9 245.214 141C245.514 138.8 246.184 136.75 247.224 134.85C248.284 132.93 249.604 131.25 251.184 129.81C252.764 128.35 254.514 127.21 256.434 126.39C258.374 125.57 260.374 125.16 262.434 125.16C264.874 125.16 267.054 125.73 268.974 126.87C270.914 128.01 272.434 129.54 273.534 131.46L270.414 132.99C269.494 131.51 268.274 130.38 266.754 129.6C265.254 128.8 263.664 128.4 261.984 128.4C259.784 128.4 257.714 128.98 255.774 130.14C253.834 131.28 252.204 132.81 250.884 134.73C249.584 136.63 248.774 138.72 248.454 141C248.134 143.3 248.364 145.4 249.144 147.3C249.944 149.2 251.154 150.72 252.774 151.86C254.394 152.98 256.284 153.54 258.444 153.54C260.264 153.54 262.034 153.11 263.754 152.25C265.474 151.39 266.944 150.29 268.164 148.95ZM279.348 126H282.588L278.388 156H275.148L279.348 126ZM281.808 120.33C281.248 120.33 280.798 120.15 280.458 119.79C280.118 119.41 279.988 118.94 280.068 118.38C280.148 117.82 280.408 117.36 280.848 117C281.288 116.62 281.788 116.43 282.348 116.43C282.888 116.43 283.328 116.62 283.668 117C284.008 117.36 284.138 117.82 284.058 118.38C283.958 118.94 283.698 119.41 283.278 119.79C282.858 120.15 282.368 120.33 281.808 120.33ZM314.892 126H318.132L313.932 156H310.692L311.472 149.85C310.152 151.93 308.452 153.61 306.372 154.89C304.312 156.15 301.962 156.78 299.322 156.78C297.142 156.78 295.152 156.37 293.352 155.55C291.552 154.71 290.022 153.57 288.762 152.13C287.522 150.67 286.622 148.99 286.062 147.09C285.522 145.17 285.412 143.11 285.732 140.91C286.032 138.73 286.712 136.69 287.772 134.79C288.852 132.89 290.212 131.22 291.852 129.78C293.512 128.32 295.342 127.19 297.342 126.39C299.362 125.57 301.452 125.16 303.612 125.16C306.272 125.16 308.492 125.81 310.272 127.11C312.052 128.39 313.332 130.07 314.112 132.15L314.892 126ZM299.712 153.6C302.032 153.6 304.092 153.04 305.892 151.92C307.712 150.78 309.192 149.25 310.332 147.33C311.472 145.41 312.212 143.3 312.552 141C312.892 138.64 312.742 136.51 312.102 134.61C311.482 132.69 310.422 131.17 308.922 130.05C307.442 128.91 305.562 128.34 303.282 128.34C300.982 128.34 298.802 128.91 296.742 130.05C294.682 131.19 292.952 132.72 291.552 134.64C290.172 136.56 289.322 138.68 289.002 141C288.682 143.36 288.952 145.49 289.812 147.39C290.692 149.29 292.002 150.8 293.742 151.92C295.482 153.04 297.472 153.6 299.712 153.6ZM320.413 156L326.713 111H329.953L323.653 156H320.413Z"
       fill="white"
       id="path2369" />
    <path
       d="M129.103 295L133.303 265H136.543L135.913 269.59C137.233 267.93 138.843 266.61 140.743 265.63C142.643 264.65 144.653 264.16 146.773 264.16C149.093 264.16 151.123 264.74 152.863 265.9C154.623 267.04 155.893 268.56 156.673 270.46C158.013 268.56 159.713 267.04 161.773 265.9C163.833 264.74 166.023 264.16 168.343 264.16C170.623 264.16 172.623 264.72 174.343 265.84C176.063 266.94 177.353 268.43 178.213 270.31C179.073 272.19 179.333 274.27 178.993 276.55L176.413 295H173.173L175.693 277.15C175.933 275.41 175.733 273.81 175.093 272.35C174.453 270.87 173.483 269.68 172.183 268.78C170.903 267.88 169.393 267.43 167.653 267.43C165.913 267.43 164.273 267.85 162.733 268.69C161.193 269.51 159.903 270.65 158.863 272.11C157.823 273.57 157.163 275.25 156.883 277.15L154.393 295H151.153L153.643 277.15C153.923 275.25 153.733 273.57 153.073 272.11C152.433 270.65 151.463 269.51 150.163 268.69C148.863 267.85 147.343 267.43 145.603 267.43C143.883 267.43 142.243 267.88 140.683 268.78C139.143 269.68 137.843 270.87 136.783 272.35C135.743 273.81 135.103 275.41 134.863 277.15L132.343 295H129.103ZM194.859 295.78C192.099 295.78 189.679 295.07 187.599 293.65C185.539 292.23 183.999 290.33 182.979 287.95C181.979 285.55 181.679 282.9 182.079 280C182.379 277.8 183.049 275.75 184.089 273.85C185.149 271.93 186.469 270.25 188.049 268.81C189.629 267.35 191.379 266.21 193.299 265.39C195.239 264.57 197.239 264.16 199.299 264.16C201.479 264.16 203.429 264.59 205.149 265.45C206.889 266.29 208.319 267.48 209.439 269.02C210.559 270.56 211.329 272.38 211.749 274.48C212.189 276.56 212.199 278.84 211.779 281.32H185.289C185.209 283.46 185.579 285.38 186.399 287.08C187.239 288.76 188.419 290.09 189.939 291.07C191.479 292.03 193.269 292.52 195.309 292.54C197.529 292.54 199.619 291.96 201.579 290.8C203.539 289.62 205.189 288.01 206.529 285.97L209.679 286.72C208.099 289.38 205.979 291.56 203.319 293.26C200.679 294.94 197.859 295.78 194.859 295.78ZM185.589 278.56H208.929C209.089 276.5 208.749 274.61 207.909 272.89C207.089 271.15 205.899 269.76 204.339 268.72C202.779 267.68 200.969 267.16 198.909 267.16C196.829 267.16 194.869 267.67 193.029 268.69C191.189 269.71 189.609 271.09 188.289 272.83C186.989 274.55 186.089 276.46 185.589 278.56ZM246.299 250H249.539L243.239 295H239.999L240.869 288.82C239.529 290.92 237.809 292.61 235.709 293.89C233.609 295.15 231.229 295.78 228.569 295.78C226.389 295.78 224.399 295.37 222.599 294.55C220.819 293.73 219.309 292.6 218.069 291.16C216.829 289.7 215.929 288.02 215.369 286.12C214.829 284.22 214.709 282.18 215.009 280C215.309 277.82 215.999 275.78 217.079 273.88C218.179 271.96 219.549 270.28 221.189 268.84C222.849 267.38 224.689 266.24 226.709 265.42C228.729 264.6 230.829 264.19 233.009 264.19C235.669 264.19 237.869 264.83 239.609 266.11C241.349 267.37 242.599 269.04 243.359 271.12L246.299 250ZM229.019 292.6C231.339 292.6 233.399 292.04 235.199 290.92C237.019 289.78 238.499 288.25 239.639 286.33C240.779 284.41 241.519 282.3 241.859 280C242.199 277.64 242.049 275.51 241.409 273.61C240.789 271.69 239.729 270.17 238.229 269.05C236.749 267.91 234.869 267.34 232.589 267.34C230.289 267.34 228.109 267.91 226.049 269.05C224.009 270.19 222.289 271.72 220.889 273.64C219.489 275.56 218.629 277.68 218.309 280C217.989 282.36 218.259 284.49 219.119 286.39C219.999 288.29 221.309 289.8 223.049 290.92C224.789 292.04 226.779 292.6 229.019 292.6ZM254.651 265H257.891L253.691 295H250.451L254.651 265ZM257.111 259.33C256.551 259.33 256.101 259.15 255.761 258.79C255.421 258.41 255.291 257.94 255.371 257.38C255.451 256.82 255.711 256.36 256.151 256C256.591 255.62 257.091 255.43 257.651 255.43C258.191 255.43 258.631 255.62 258.971 256C259.311 256.36 259.441 256.82 259.361 257.38C259.261 257.94 259.001 258.41 258.581 258.79C258.161 259.15 257.671 259.33 257.111 259.33ZM290.195 265H293.435L289.235 295H285.995L286.775 288.85C285.455 290.93 283.755 292.61 281.675 293.89C279.615 295.15 277.265 295.78 274.625 295.78C272.445 295.78 270.455 295.37 268.655 294.55C266.855 293.71 265.325 292.57 264.065 291.13C262.825 289.67 261.925 287.99 261.365 286.09C260.825 284.17 260.715 282.11 261.035 279.91C261.335 277.73 262.015 275.69 263.075 273.79C264.155 271.89 265.515 270.22 267.155 268.78C268.815 267.32 270.645 266.19 272.645 265.39C274.665 264.57 276.755 264.16 278.915 264.16C281.575 264.16 283.795 264.81 285.575 266.11C287.355 267.39 288.635 269.07 289.415 271.15L290.195 265ZM275.015 292.6C277.335 292.6 279.395 292.04 281.195 290.92C283.015 289.78 284.495 288.25 285.635 286.33C286.775 284.41 287.515 282.3 287.855 280C288.195 277.64 288.045 275.51 287.405 273.61C286.785 271.69 285.725 270.17 284.225 269.05C282.745 267.91 280.865 267.34 278.585 267.34C276.285 267.34 274.105 267.91 272.045 269.05C269.985 270.19 268.255 271.72 266.855 273.64C265.475 275.56 264.625 277.68 264.305 280C263.985 282.36 264.255 284.49 265.115 286.39C265.995 288.29 267.305 289.8 269.045 290.92C270.785 292.04 272.775 292.6 275.015 292.6Z"
       fill="white"
       id="path2371" />
    <g
       clip-path="url(#clip1_0_1)"
       id="g2375">
      <path
         d="M212 177C193.252 177 178 192.252 178 211C178 229.748 193.252 245 212 245C230.748 245 246 229.748 246 211C246 192.252 230.748 177 212 177ZM229.788 236.557L222.551 234.143L221.973 231.834C229.003 230.638 232.629 228.527 232.788 228.433C233.19 228.198 233.44 227.77 233.474 227.306C233.508 226.841 233.298 226.382 232.935 226.093C232.887 226.056 228.133 222.118 228.133 208.484C228.133 196.89 225.407 191.011 220.027 191.011H219.267C217.346 189.155 215.887 188.333 212 188.333C206.945 188.333 195.867 193.408 195.867 208.481C195.867 222.115 191.113 226.054 191.081 226.079C190.705 226.362 190.492 226.813 190.515 227.283C190.54 227.756 190.795 228.181 191.2 228.425C191.359 228.521 194.949 230.641 202.024 231.836L201.449 234.14L194.212 236.554C186.137 230.918 180.833 221.574 180.833 211C180.833 193.816 194.816 179.833 212 179.833C229.184 179.833 243.167 193.816 243.167 211C243.167 221.574 237.863 230.918 229.788 236.557Z"
         fill="#FFF4F4"
         id="path2373" />
    </g>
  </g>
  <defs
     id="defs2393">
    <clipPath
       id="clip0_0_1">
      <rect
         width="343"
         height="343"
         fill="white"
         transform="translate(40 40)"
         id="rect2387" />
    </clipPath>
    <clipPath
       id="clip1_0_1">
      <rect
         width="68"
         height="68"
         fill="white"
         transform="translate(178 177)"
         id="rect2390" />
    </clipPath>
  </defs>
</svg>
