<?xml version="1.0" encoding="UTF-8" standalone="no"?>
<svg
   width="423"
   height="423"
   viewBox="0 0 423 423"
   fill="none"
   version="1.1"
   id="svg2715"
   sodipodi:docname="writings_logo.svg"
   inkscape:version="1.2.2 (b0a8486, 2022-12-01)"
   xmlns:inkscape="http://www.inkscape.org/namespaces/inkscape"
   xmlns:sodipodi="http://sodipodi.sourceforge.net/DTD/sodipodi-0.dtd"
   xmlns="http://www.w3.org/2000/svg"
   xmlns:svg="http://www.w3.org/2000/svg">
  <sodipodi:namedview
     id="namedview2717"
     pagecolor="#505050"
     bordercolor="#eeeeee"
     borderopacity="1"
     inkscape:showpageshadow="0"
     inkscape:pageopacity="0"
     inkscape:pagecheckerboard="0"
     inkscape:deskcolor="#505050"
     showgrid="false"
     inkscape:zoom="8.2364066"
     inkscape:cx="78.189438"
     inkscape:cy="29.260333"
     inkscape:window-width="1918"
     inkscape:window-height="1061"
     inkscape:window-x="0"
     inkscape:window-y="17"
     inkscape:window-maximized="1"
     inkscape:current-layer="svg2715" />
  <g
     clip-path="url(#clip0_0_1)"
     id="g2698">
    <circle
       cx="211.5"
       cy="211.5"
       r="171.5"
       fill="#960018"
       id="circle2694" />
    <path
       d="M179.026 148.549L110.769 125.794C109.338 125.311 107.796 125.552 106.578 126.426C105.352 127.299 104.646 128.702 104.646 130.198V269.573C104.646 271.571 105.928 273.345 107.824 273.977L179.007 297.708C179.007 297.615 178.979 297.541 178.979 297.448V148.781C178.979 148.698 179.026 148.633 179.026 148.549ZM316.422 126.426C315.204 125.552 313.643 125.301 312.231 125.794L243.965 148.549C243.965 148.633 244.012 148.698 244.012 148.781V297.448C244.012 297.541 243.984 297.615 243.984 297.708L315.167 273.977C317.063 273.345 318.345 271.571 318.345 269.573V130.198C318.354 128.702 317.648 127.299 316.422 126.426ZM228.467 153.752C228.141 153.873 227.872 154.068 227.584 154.254C227.361 154.403 227.119 154.514 226.924 154.7C226.701 154.914 226.553 155.174 226.367 155.425C226.199 155.657 226.014 155.871 225.893 156.131C225.772 156.382 225.735 156.67 225.67 156.949C225.586 157.265 225.493 157.562 225.484 157.896C225.484 157.961 225.447 158.017 225.447 158.082C225.447 160.647 223.365 162.728 220.801 162.728H217.214C224.406 144.851 270.707 127.838 300.839 120.795C303.339 120.209 304.891 117.71 304.305 115.21C303.72 112.711 301.202 111.15 298.721 111.745C290.646 113.631 228.866 128.832 211.509 154.096C194.152 128.823 132.363 113.622 124.298 111.745C121.808 111.15 119.308 112.711 118.723 115.21C118.128 117.71 119.689 120.209 122.188 120.795C152.321 127.838 198.622 144.851 205.813 162.728H202.227C199.662 162.728 197.581 160.647 197.581 158.082C197.581 158.017 197.544 157.961 197.544 157.896C197.535 157.571 197.432 157.265 197.358 156.949C197.284 156.67 197.247 156.391 197.135 156.131C197.005 155.871 196.819 155.657 196.661 155.425C196.485 155.174 196.327 154.914 196.104 154.7C195.909 154.524 195.667 154.403 195.444 154.254C195.156 154.068 194.887 153.873 194.561 153.752C194.506 153.734 194.468 153.687 194.413 153.669L188.299 151.634V297.457C188.299 298.674 188.503 299.845 188.8 300.969C189.562 303.878 191.253 306.387 193.511 308.236C193.623 308.328 193.734 308.431 193.846 308.514C194.914 309.332 196.113 309.992 197.395 310.475C197.6 310.549 197.813 310.605 198.027 310.67C199.356 311.097 200.759 311.385 202.236 311.385H220.82C222.297 311.385 223.691 311.097 225.029 310.67C225.242 310.605 225.456 310.549 225.661 310.475C226.943 309.992 228.141 309.332 229.21 308.514C229.331 308.421 229.433 308.328 229.544 308.236C231.802 306.387 233.493 303.878 234.255 300.969C234.553 299.836 234.757 298.674 234.757 297.457V151.634L228.643 153.669C228.56 153.687 228.532 153.734 228.467 153.752Z"
       fill="white"
       id="path2696" />
  </g>
  <defs
     id="defs2713">
    <clipPath
       id="clip0_0_1">
      <rect
         width="343"
         height="343"
         fill="white"
         transform="translate(40 40)"
         id="rect2710" />
    </clipPath>
  </defs>
</svg>
